<?xml version="1.0" encoding="UTF-8" standalone="no"?>
<!-- Created with Inkscape (http://www.inkscape.org/) -->

<svg
   version="1.1"
   id="svg2"
   width="74.373177"
   height="63.418518"
   viewBox="0 0 74.373179 63.41852"
   xmlns="http://www.w3.org/2000/svg"
   xmlns:svg="http://www.w3.org/2000/svg">
  <defs
     id="defs6">
    <clipPath
       clipPathUnits="userSpaceOnUse"
       id="clipPath3012">
      <g
         id="use3014"
         style="fill:#000000">
        <g
           id="g45001">
          <path
             style="fill:#000000;stroke-width:0.0854568"
             d="M 69.235717,81.36964 C 53.388761,77.103933 39.959268,76.004612 39.948913,75.994159 c -0.02534,-0.02558 9.946705,-45.563944 9.987405,-45.604644 0.0176,-0.01761 1.855951,-2.056147 2.064205,-1.625349 0.760829,0.173323 0.02167,2.235001 -0.01899,2.404398 -0.654167,2.725589 -9.5485,41.266859 -9.528039,41.287263 0.01622,0.01617 12.642909,3.148185 28.059309,6.960025 15.4164,3.811839 28.074063,6.946534 28.12814,6.965986 0.06998,0.02518 0.03871,0.289527 -0.108498,0.917245 -0.113751,0.485031 -0.269235,1.059011 -0.269235,1.059011 -0.179442,0.02608 2.08058,1.385267 -29.027495,-6.988449 z"
             id="path44999" />
        </g>
      </g>
    </clipPath>
  </defs>
  <g
     id="layer1"
     style="display:none"
     transform="translate(-40.335261,-25.205639)">
    <rect
       style="fill:#000000"
       id="rect1099"
       width="481.30627"
       height="193.36179"
       x="5.0064445"
       y="-2.3267205" />
  </g>
  <g
     id="g44633"
     style="display:none"
     transform="translate(-40.335261,-25.205639)">
    <g
       id="g44625"
       transform="matrix(0.97325948,0,0,0.95164414,2.0405199,2.7634099)">
      <g
         id="g44615">
        <g
           id="g44609">
          <path
             style="display:inline;fill:#ff0000;fill-opacity:1;stroke:#000000;stroke-width:1px;stroke-linecap:butt;stroke-linejoin:miter;stroke-opacity:1"
             d="m 39.826783,74.271805 9.318809,-43.672785 3.422604,-1.139538 4.699382,-4.162944 13.038369,8.82666 5.16651,4.835967 34.302783,7.615823 -3.99259,37.527103 -5.72185,3.971368 C 95.820317,86.230935 92.560655,84.324464 85.239906,82.682767 L 61.440854,78.486312 57.39232,80.207546 41.582781,76.225187 Z"
             id="path44607" />
        </g>
        <path
           style="fill:#ffffff;stroke:#000000;stroke-width:1px;stroke-linecap:butt;stroke-linejoin:miter;stroke-opacity:1"
           d="m 46.718834,69.492145 10.34049,-44.6264 19.777466,4.219967 4.357524,5.902085 -4.357524,-5.902085 4.357524,5.902085 34.302786,7.615823 -9.71445,41.498471 z"
           id="path44611" />
      </g>
      <g
         id="g44623"
         clip-path="url(#clipPath3012)"
         transform="translate(4.1119726,-2.9200537)">
        <g
           id="g44621"
           style="fill:#000000"
           transform="translate(0.94682825,-0.97836216)">
          <g
             id="g44619">
            <path
               style="fill:#000000;stroke-width:0.0854568"
               d="M 69.235717,81.36964 C 53.388761,77.103933 39.959268,76.004612 39.948913,75.994159 c -0.02534,-0.02558 9.946705,-45.563944 9.987405,-45.604644 0.0176,-0.01761 1.855951,-2.056147 2.064205,-1.625349 0.760829,0.173323 0.02167,2.235001 -0.01899,2.404398 -0.654167,2.725589 -9.5485,41.266859 -9.528039,41.287263 0.01622,0.01617 12.642909,3.148185 28.059309,6.960025 15.4164,3.811839 28.074063,6.946534 28.12814,6.965986 0.06998,0.02518 0.03871,0.289527 -0.108498,0.917245 -0.113751,0.485031 -0.269235,1.059011 -0.269235,1.059011 -0.179442,0.02608 2.08058,1.385267 -29.027495,-6.988449 z"
               id="path44617" />
          </g>
        </g>
      </g>
    </g>
  </g>
  <g
     id="layer16">
    <path
       style="fill:#ff0000;stroke:#f90000;stroke-width:1.36632px;stroke-linecap:butt;stroke-linejoin:miter;stroke-opacity:1"
       d="m 25.670669,58.278889 -6.223511,-2.978932 -1.083014,-5.134195 -2.577874,-4.996913 1.113514,-6.053956 2.547374,-7.220824 5.048973,-3.582955 6.315037,-3.775143 0.457613,-2.498459 3.203276,0.713845 -1.205041,-2.937745 -3.142264,-2.471007 -0.350838,-4.681175 4.682892,0.192188 -0.823701,-2.8142 -2.882953,-4.1595224 1.525368,-4.2281597 3.188025,0.9472177 2.455848,3.8712395 2.166027,-3.2672155 5.750648,-1.908164 1.266058,3.212305 -2.043993,4.1046104 -2.410088,3.239762 0.655909,5.065553 1.128773,3.020117 0.213552,3.679046 5.415068,1.757157 5.567604,4.090884 2.654142,2.786748 3.081247,6.905078 -0.854202,8.442588 -3.371068,9.307451 -8.740378,2.182716 -5.659121,3.322125 -6.376056,-0.247098 -6.696378,-1.688519 z"
       id="path128211" />
    <path
       style="fill:#ffffff;stroke:#000000;stroke-width:1.36632px;stroke-linecap:butt;stroke-linejoin:miter;stroke-opacity:1"
       d="m 37.850991,22.701252 c -0.178247,2.113039 -2.471207,2.63017 -6.347895,4.074824 C 9.4854378,34.980984 19.301507,60.79708 38.125561,59.43683 Z"
       id="path121561" />
    <path
       style="fill:#000000;stroke:#000000;stroke-width:1.41794px;stroke-linecap:butt;stroke-linejoin:miter;stroke-opacity:1"
       d="m 38.421265,22.701252 c 0.191968,2.113039 2.601888,2.711335 6.836541,4.074824 23.806196,7.665199 12.737101,32.410548 -7.132245,32.660754 z"
       id="path121561-6" />
    <path
       style="fill:#ffffff;stroke:#000000;stroke-width:1.45141px;stroke-linecap:butt;stroke-linejoin:miter;stroke-opacity:1"
       d="m 37.850991,22.701252 c 0.201137,2.113039 0.114975,2.973881 4.589959,4.218966 9.670681,2.690693 13.057136,32.075869 -4.899791,32.516612 z"
       id="path121561-6-7" />
    <path
       style="fill:#ffffff;stroke:#000000;stroke-width:1.36632px;stroke-linecap:butt;stroke-linejoin:miter;stroke-opacity:1"
       d="m 35.364641,25.666455 c 1.407652,-4.869833 -0.0102,-6.901761 -2.059259,-9.774189 l 7.825165,3.52804 0.04576,6.040232 z"
       id="path123580" />
    <path
       style="fill:#000000;stroke:#000000;stroke-width:1.36632px;stroke-linecap:butt;stroke-linejoin:miter;stroke-opacity:1"
       d="m 39.528905,25.501722 c 1.601642,-6.081416 -0.525727,-6.243516 -1.990509,-7.753523 l 3.592151,1.672107 c -0.560549,2.013532 -1.030351,4.02673 0.04576,6.040232 z"
       id="path124565" />
    <path
       style="fill:none;stroke:#000000;stroke-width:1.36632px;stroke-linecap:butt;stroke-linejoin:miter;stroke-opacity:1"
       d="M 37.538396,17.748199 C 38.980271,11.982175 37.707571,7.4087193 33.082062,4.3082168 36.61162,8.8052267 38.361114,13.203499 37.538396,17.748199 Z"
       id="path126100" />
    <path
       style="fill:none;stroke:#000000;stroke-width:1.36632px;stroke-linecap:butt;stroke-linejoin:miter;stroke-opacity:1"
       d="M 39.25337,18.369448 C 41.117444,13.453301 40.1312,7.3449148 44.709367,3.7937454 39.027687,6.3156167 40.870435,13.217639 39.25337,18.369448 Z"
       id="path126230" />
    <path
       style="fill:none;stroke:#000000;stroke-width:0.683158;stroke-linecap:butt;stroke-linejoin:miter;stroke-miterlimit:4;stroke-dasharray:none;stroke-opacity:1"
       d="M 37.662942,25.611666 38.125561,59.43683 C 20.681847,52.667957 18.538299,33.979426 37.662942,25.611666 Z"
       id="path126398" />
    <path
       style="fill:none;stroke:#000000;stroke-width:0.683158;stroke-linecap:butt;stroke-linejoin:miter;stroke-miterlimit:4;stroke-dasharray:none;stroke-opacity:1"
       d="M 37.662942,25.611666 38.125561,59.43683 C 27.092416,52.098373 29.610201,32.677144 37.662942,25.611666 Z"
       id="path126398-5" />
  </g>
</svg>
